<svg xmlns="http://www.w3.org/2000/svg" viewBox="0 0 746.02 207.27">
  <defs>
    <style>
      .cls-1 {
        font-size: 133.55px;
        font-family: Futura-Medium, Futura;
        font-weight: 500;
      }

      .cls-2 {
        letter-spacing: -0.03em;
      }

      .cls-3 {
        letter-spacing: -0.02em;
      }

      .cls-4 {
        letter-spacing: -0.02em;
      }

      .cls-5 {
        fill: #f15a24;
      }

      .cls-6 {
        fill: #e6e7e8;
      }

      .cls-7, .cls-8, .cls-9 {
        fill: none;
        stroke: #231f20;
        stroke-linecap: round;
        stroke-miterlimit: 10;
      }

      .cls-7 {
        stroke-width: 11px;
      }

      .cls-8 {
        stroke-width: 6px;
      }

      .cls-9 {
        stroke-width: 4px;
      }
    </style>
  </defs>
  <title>title</title>
  <g id="Layer_1" data-name="Layer 1">
    <text class="cls-1" transform="translate(233.28 155.13)"><tspan class="cls-2">P</tspan><tspan x="68.27" y="0">o</tspan><tspan class="cls-3" x="148.55" y="0">k</tspan><tspan x="212.91" y="0">éd</tspan><tspan class="cls-4" x="366.87" y="0">e</tspan><tspan x="438.21" y="0">x</tspan></text>
  </g>
  <g id="Layer_2" data-name="Layer 2">
    <g>
      <g>
        <path class="cls-5" d="M318.75,99.57c0,.64,0,1.26,0,1.9l-64.31-.73-2.18-.06a4,4,0,0,0,0-.49,31.83,31.83,0,1,0-63.65,0,6,6,0,0,0,0,.61l-1.29,0-64.86-.73v-.53a98.14,98.14,0,1,1,196.27,0Z" transform="translate(-116.98 4.08)"/>
        <path class="cls-6" d="M254.42,100.74l64.31.73a98.13,98.13,0,0,1-196.25-1.37l64.86.73,1.29,0a31.81,31.81,0,0,0,63.61-.12Z" transform="translate(-116.98 4.08)"/>
        <path class="cls-6" d="M252.26,100.19a4,4,0,0,1,0,.49,31.81,31.81,0,0,1-63.61.12,6,6,0,0,1,0-.61,31.83,31.83,0,1,1,63.65,0Z" transform="translate(-116.98 4.08)"/>
      </g>
      <g>
        <path class="cls-7" d="M122.48,100.1v-.53a98.14,98.14,0,1,1,196.27,0c0,.64,0,1.26,0,1.9a98.13,98.13,0,0,1-196.25-1.37Z" transform="translate(-116.98 4.08)"/>
        <polyline class="cls-8" points="4.33 104.16 5.5 104.18 70.36 104.91"/>
        <path class="cls-9" d="M188.63,100.8a6,6,0,0,1,0-.61,31.83,31.83,0,1,1,63.65,0,4,4,0,0,1,0,.49,31.81,31.81,0,0,1-63.61.12Z" transform="translate(-116.98 4.08)"/>
        <polyline class="cls-8" points="137.45 104.82 201.76 105.54 203.48 105.56"/>
      </g>
    </g>
  </g>
</svg>
